<svg width="243" height="66" viewBox="0 0 243 66" fill="none" xmlns="http://www.w3.org/2000/svg">
<path d="M85.5429 47.4375V20.4375H91.2514V32.3423H91.6074L101.324 20.4375H108.166L98.1464 32.5268L108.285 47.4375H101.456L94.0595 36.3369L91.2514 39.7646V47.4375H85.5429Z" fill="#151515"/>
<path d="M112.253 47.4375V20.4375H130.446V25.144H117.961V31.5776H129.51V36.2842H117.961V42.7309H130.499V47.4375H112.253Z" fill="#151515"/>
<path d="M158.682 20.4375V47.4375H153.751L142.004 30.4438H141.807V47.4375H136.098V20.4375H141.108L152.762 37.418H153V20.4375H158.682Z" fill="#151515"/>
<path d="M174.083 47.4375H164.512V20.4375H174.162C176.878 20.4375 179.216 20.978 181.176 22.0591C183.136 23.1313 184.643 24.6738 185.698 26.6865C186.761 28.6992 187.293 31.1074 187.293 33.9111C187.293 36.7236 186.761 39.1406 185.698 41.1621C184.643 43.1836 183.127 44.7349 181.15 45.8159C179.181 46.897 176.825 47.4375 174.083 47.4375ZM170.22 42.5464H173.846C175.533 42.5464 176.953 42.2475 178.104 41.6499C179.264 41.0434 180.134 40.1074 180.714 38.8418C181.303 37.5674 181.598 35.9238 181.598 33.9111C181.598 31.916 181.303 30.2856 180.714 29.02C180.134 27.7544 179.269 26.8227 178.117 26.2251C176.966 25.6274 175.547 25.3286 173.859 25.3286H170.22V42.5464Z" fill="#151515"/>
<path d="M195.767 47.4375H189.649L198.97 20.4375H206.327L215.634 47.4375H209.517L202.754 26.6074H202.543L195.767 47.4375ZM195.384 36.8247H209.833V41.2808H195.384V36.8247Z" fill="#151515"/>
<path d="M242.581 20.4375V47.4375H237.651L225.904 30.4438H225.706V47.4375H219.998V20.4375H225.008L236.662 37.418H236.899V20.4375H242.581Z" fill="#151515"/>
<path fill-rule="evenodd" clip-rule="evenodd" d="M27.8002 12H38.0587V29.9471H38.6182L52.6485 12H64.7306L49.6849 30.9418L65 54.443H52.7314L42.1621 37.7601L38.0587 42.9411V54.443H37.5866V54.7377L20.054 54.7377C16.8763 54.7377 14.1338 54.1644 11.8266 53.0176C9.50546 51.8847 7.71628 50.2544 6.45902 48.1267C5.20176 46.0129 4.57312 43.5053 4.57312 40.6039C4.57312 37.6611 5.21557 35.1603 6.50047 33.1018C7.77606 31.0718 9.5827 29.5184 11.9204 28.4416L3.12244 12.2947L14.3135 12.2947L22.0739 26.8223L27.3282 26.8587L27.3282 12.2947L27.8002 12.2947V12ZM18.3961 35.5058C19.4323 35.1051 20.7241 34.9048 22.2715 34.9048L27.3282 34.9405L27.3282 46.4688H22.2715C20.7379 46.4688 19.4461 46.2477 18.3961 45.8056C17.3461 45.3773 16.5517 44.728 16.0128 43.8576C15.474 43.001 15.2046 41.9164 15.2046 40.6039C15.2046 39.2914 15.474 38.2137 16.0128 37.3709C16.5517 36.542 17.3461 35.9202 18.3961 35.5058Z" fill="#151515"/>
</svg>
